<?xml version="1.0" encoding="UTF-8"?>
<svg width="100pt" height="100pt" version="1.1" viewBox="0 0 100 100" xmlns="http://www.w3.org/2000/svg">
 <g>
  <path d="m53.27 49.887 29.934-29.934c1.5625-1.5625 1.5625-4.0938 0-5.6562s-4.0977-1.5625-5.6562 0l-32.75 32.75c-1.5586 1.5586-1.5625 4.082-0.011719 5.6445l32.75 33c0.78125 0.78906 1.8125 1.1836 2.8398 1.1836 1.0195 0 2.0352-0.38672 2.8164-1.1602 1.5664-1.5547 1.5781-4.0898 0.019532-5.6562z"/>
  <path d="m25.27 49.887 29.934-29.934c1.5625-1.5625 1.5625-4.0938 0-5.6562s-4.0938-1.5625-5.6562 0l-32.75 32.75c-1.5586 1.5586-1.5625 4.082-0.011719 5.6445l32.75 33c0.78125 0.78906 1.8125 1.1836 2.8398 1.1836 1.0195 0 2.0352-0.38672 2.8164-1.1602 1.5664-1.5547 1.5781-4.0898 0.019532-5.6562z"/>
 </g>
</svg>
