<?xml version="1.0" encoding="UTF-8"?>
<svg width="100pt" height="100pt" version="1.1" viewBox="0 0 100 100" xmlns="http://www.w3.org/2000/svg">
 <path d="m65.027 59.133 21.699 21.699-5.8945 5.8945-21.699-21.699c-4.8672 3.6445-10.914 5.8047-17.465 5.8047-16.109 0-29.168-13.059-29.168-29.164 0-16.109 13.059-29.168 29.168-29.168 16.105 0 29.164 13.059 29.164 29.168 0 6.5508-2.1602 12.598-5.8047 17.465zm-23.359 3.3672c11.504 0 20.832-9.3281 20.832-20.832 0-11.508-9.3281-20.836-20.832-20.836-11.508 0-20.836 9.3281-20.836 20.836 0 11.504 9.3281 20.832 20.836 20.832z"/>
</svg>
